<svg width="171" height="109" viewBox="0 0 171 109" fill="none" xmlns="http://www.w3.org/2000/svg">
<g clip-path="url(#clip0_222_1483)">
<path d="M28.4649 0V8.33652H18.4432V109H10.0217V8.33652H0V0H28.4649Z" fill="white"/>
<path d="M62.4888 100.705V109.041H45.6457C41.8981 109.041 38.8242 106.04 38.8242 102.289V43.5996H47.2458V100.08C47.2458 100.413 47.5405 100.705 47.8774 100.705H62.4888Z" fill="white"/>
<path d="M55.6657 35.2637H47.2441V43.6002H55.6657V35.2637Z" fill="white"/>
<path d="M62.4888 0V8.33652H47.8774C47.5405 8.33652 47.2458 8.58662 47.2458 8.96176V35.3052H38.8242V6.75258C38.8242 3.00115 41.8981 0 45.6457 0H62.4888Z" fill="white"/>
<path d="M72.8887 6.75258V109.042H81.3102V43.6H89.7318V109H98.1534V6.75258C98.1534 3.04283 95.1216 0 91.3319 0C91.3319 0 91.3319 0 91.2898 0H79.668C75.9204 0 72.8887 3.00115 72.8887 6.75258ZM89.7318 35.2635H81.3102V8.92008C81.3102 8.58662 81.605 8.33652 81.8998 8.29484H89.0581C89.3949 8.29484 89.6897 8.58662 89.6897 8.92008L89.7318 35.2635Z" fill="white"/>
<path d="M110.111 6.75258V109.042H118.533V65.4H128.555C132.302 65.4 135.376 62.3988 135.376 58.6474V6.75258C135.376 3.04283 132.344 0 128.555 0H116.933C113.185 0 110.111 3.00115 110.111 6.75258ZM126.323 57.0635H118.533V8.92008C118.533 8.58662 118.828 8.29484 119.165 8.29484H126.323C126.66 8.29484 126.954 8.54493 126.954 8.92008V56.4382C126.954 56.8134 126.66 57.0635 126.323 57.0635Z" fill="white"/>
<path d="M171 6.75258V28.5526H162.579V8.96176C162.579 8.6283 162.284 8.33652 161.947 8.33652H154.789C154.452 8.33652 154.157 8.6283 154.157 8.96176V36.514C154.157 36.7641 154.283 36.9725 154.494 37.0558L167.21 43.3499C169.526 44.4753 170.958 46.8096 170.958 49.3522V102.289C170.958 105.999 167.926 109 164.179 109H152.515C148.767 109 145.693 105.999 145.693 102.247V58.6891H154.115V100.08C154.115 100.413 154.41 100.705 154.747 100.705H161.905C162.242 100.705 162.537 100.455 162.537 100.08V50.7277C162.537 50.4776 162.41 50.2692 162.2 50.1859L149.483 43.8918C147.167 42.7663 145.735 40.4321 145.735 37.8478V6.75258C145.735 3.04283 148.767 0 152.557 0H164.221C167.968 0 171 3.04283 171 6.75258Z" fill="white"/>
</g>
<defs>
<clipPath id="clip0_222_1483">
<rect width="171" height="109" fill="white"/>
</clipPath>
</defs>
</svg>
